HIERARCHY
ROOT Hips
{
	OFFSET 0.000000 0.000000 0.000000
	CHANNELS 6 Xposition Yposition Zposition Zrotation Yrotation Xrotation 
	JOINT LeftUpLeg_virtual
	{
		OFFSET 0.000000 0.000000 0.000000
		CHANNELS 3 Zrotation Yrotation Xrotation
		JOINT LeftUpLeg
		{
			OFFSET 10.205400 -3.823500 0.155100
			CHANNELS 3 Zrotation Yrotation Xrotation
			JOINT LeftLeg
			{
				OFFSET 0.708757 -12.982077 0.567790
				CHANNELS 3 Zrotation Yrotation Xrotation
				JOINT LeftFoot
				{
					OFFSET -0.708756 -10.717838 -2.184338
					CHANNELS 3 Zrotation Yrotation Xrotation
					JOINT LeftToeBase
					{
						OFFSET 0.108149 -7.191104 7.560241
						CHANNELS 3 Zrotation Yrotation Xrotation
						End Site
						{
							OFFSET 0.000000 0.000000 0.000000
						}
					}
				}
			}
		}
	}
	JOINT RightUpLeg_virtual
	{
		OFFSET 0.000000 0.000000 0.000000
		CHANNELS 3 Zrotation Yrotation Xrotation
		JOINT RightUpLeg
		{
			OFFSET -10.205400 -3.823500 0.005500
			CHANNELS 3 Zrotation Yrotation Xrotation
			JOINT RightLeg
			{
				OFFSET -0.708756 -12.982134 0.610632
				CHANNELS 3 Zrotation Yrotation Xrotation
				JOINT RightFoot
				{
					OFFSET 0.708754 -10.717769 -1.945823
					CHANNELS 3 Zrotation Yrotation Xrotation
					JOINT RightToeBase
					{
						OFFSET -0.108140 -7.191069 7.372968
						CHANNELS 3 Zrotation Yrotation Xrotation
						End Site
						{
							OFFSET 0.000000 0.000000 0.000000
						}
					}
				}
			}
		}
	}
	JOINT Spine_virtual
	{
		OFFSET 0.000000 0.000000 0.000000
		CHANNELS 3 Zrotation Yrotation Xrotation
		JOINT Spine
		{
			OFFSET 0.000000 6.876099 0.125700
			CHANNELS 3 Zrotation Yrotation Xrotation
			JOINT Spine1
			{
				OFFSET 0.000000 8.022060 0.146608
				CHANNELS 3 Zrotation Yrotation Xrotation
				JOINT Spine2
				{
					OFFSET 0.000000 9.168068 0.167552
					CHANNELS 3 Zrotation Yrotation Xrotation
					JOINT Neck_virtual
					{
						OFFSET 0.000000 0.000000 0.000000
						CHANNELS 3 Zrotation Yrotation Xrotation
						JOINT Neck
						{
							OFFSET 0.000000 10.314075 0.188496
							CHANNELS 3 Zrotation Yrotation Xrotation
							JOINT Head
							{
								OFFSET 0.000000 7.643700 -2.377400
								CHANNELS 3 Zrotation Yrotation Xrotation
								End Site
								{
									OFFSET 0.000000 0.000000 0.000000
								}
							}
						}
					}
					JOINT LeftShoulder_virtual
					{
						OFFSET 0.000000 0.000000 0.000000
						CHANNELS 3 Zrotation Yrotation Xrotation
						JOINT LeftShoulder
						{
							OFFSET 4.392200 8.824978 0.174984
							CHANNELS 3 Zrotation Yrotation Xrotation
							JOINT LeftArm
							{
								OFFSET 8.771219 -2.981674 -0.026999
								CHANNELS 3 Zrotation Yrotation Xrotation
								JOINT LeftForeArm
								{
									OFFSET 8.512804 0.000000 -0.000000
									CHANNELS 3 Zrotation Yrotation Xrotation
									JOINT LeftHand
									{
										OFFSET 18.484802 0.000000 -0.000000
										CHANNELS 3 Zrotation Yrotation Xrotation
										End Site
										{
											OFFSET 0.000000 0.000000 0.000000
										}
									}
								}
							}
						}
					}
					JOINT RightShoulder_virtual
					{
						OFFSET 0.000000 0.000000 0.000000
						CHANNELS 3 Zrotation Yrotation Xrotation
						JOINT RightShoulder
						{
							OFFSET -4.392200 8.824993 0.141379
							CHANNELS 3 Zrotation Yrotation Xrotation
							JOINT RightArm
							{
								OFFSET -8.771282 -2.981682 -0.094208
								CHANNELS 3 Zrotation Yrotation Xrotation
								JOINT RightForeArm
								{
									OFFSET -8.494598 0.000000 0.000000
									CHANNELS 3 Zrotation Yrotation Xrotation
									JOINT RightHand
									{
										OFFSET -18.483803 0.000000 0.000001
										CHANNELS 3 Zrotation Yrotation Xrotation
										End Site
										{
											OFFSET 0.000000 0.000000 0.000000
										}
									}
								}
							}
						}
					}
				}
			}
		}
	}
}
MOTION
Frames: 8
Frame Time: 0.033333
31.050409 34.591503 36.475750 179.736483 15.859491 179.443932 0.378859 -4.002519 6.399725 -9.365050 -0.676159 -17.659142 19.877970 -3.370515 54.332983 -11.973848 -1.583455 18.180953 0.000000 0.000000 0.000000 4.648513 -1.644244 4.256545 -0.827896 8.680186 -32.067315 -6.384619 2.639727 22.206924 5.712090 12.028226 12.643244 0.000000 0.000000 0.000000 6.148033 -0.866135 -4.485182 5.317546 3.773311 -0.076107 0.327412 -3.885479 12.984461 0.011641 -0.005253 -0.062966 0.131129 -2.655054 16.496126 -0.722901 -6.740928 12.750704 0.000000 0.000000 0.000000 1.179356 -1.663993 12.761090 -14.116885 -15.660097 6.892689 -39.572771 12.309628 23.721478 -14.199678 -50.357923 14.604213 0.000000 0.000000 0.000000 -1.696899 -0.737722 12.995517 29.496104 1.378251 -5.235305 44.543417 -9.021701 4.073492 0.863669 38.461328 -5.173881 0.000000 0.000000 0.000000 
31.531792 34.833576 35.394855 179.807298 14.280286 179.612132 0.707206 -4.618783 6.359886 -7.340087 -1.578928 -22.557704 19.814203 -3.876213 59.040975 -9.568467 -0.326590 17.096139 0.000000 0.000000 0.000000 4.712020 -2.524322 4.462517 -0.403267 7.979147 -29.772617 -5.761407 2.262081 22.640552 4.579638 11.474009 10.524479 0.000000 0.000000 0.000000 6.233891 -1.436569 -4.207268 5.674185 4.147487 0.065236 0.406743 -3.941397 13.263287 -0.010556 0.016136 -0.093929 0.253437 -2.755375 16.565133 -0.617901 -6.822780 12.185157 0.000000 0.000000 0.000000 1.274919 -1.755851 12.893853 -13.739489 -15.267022 6.754668 -39.498803 13.766537 23.546034 -14.200482 -49.766234 14.670529 0.000000 0.000000 0.000000 -1.555531 -0.768147 13.230555 29.668501 1.815597 -5.000644 44.697239 -9.095227 3.229131 0.842045 37.031810 -5.370612 0.000000 0.000000 0.000000 
31.963272 35.097218 34.373280 179.836490 12.642993 179.683931 0.840847 -4.988079 6.440144 -5.088152 -2.509026 -27.624879 19.000121 -4.209912 61.024837 -8.152288 0.106015 17.942963 0.000000 0.000000 0.000000 4.895260 -3.223876 4.689973 -0.129163 7.312703 -27.069414 -5.459147 1.847082 22.472299 3.588634 10.874506 8.455087 0.000000 0.000000 0.000000 6.155084 -1.794765 -3.688802 6.013349 4.513833 0.102782 0.511329 -3.992117 13.377535 0.020130 0.047034 -0.000105 0.252801 -2.730474 16.685206 -0.666534 -6.907234 11.644695 0.000000 0.000000 0.000000 1.278968 -1.825726 13.031396 -13.289598 -14.875167 6.614205 -39.239686 15.187667 23.213533 -14.312303 -49.916382 14.911800 0.000000 0.000000 0.000000 -1.507558 -0.809597 13.423029 29.760644 2.217754 -4.689744 44.913149 -9.225527 2.204344 0.746420 35.656979 -5.582371 0.000000 0.000000 0.000000 
32.345192 35.337234 33.397717 179.989350 10.701207 179.856161 0.962186 -5.453539 6.614217 -2.835390 -3.644029 -32.359609 18.024780 -3.845693 60.621795 -6.803405 0.410500 18.468599 0.000000 0.000000 0.000000 5.133867 -3.685553 4.882763 0.201921 6.746200 -24.181834 -5.344175 1.593617 21.764676 2.545125 9.930919 6.353664 0.000000 0.000000 0.000000 6.202836 -2.069838 -3.229230 6.339901 4.926888 0.014060 0.532995 -4.045641 13.608090 -0.007495 0.006575 -0.012962 0.341534 -2.813184 16.731293 -0.712239 -6.897647 11.050127 0.000000 0.000000 0.000000 1.360332 -1.831707 13.122982 -12.828432 -14.491247 6.458883 -39.024409 16.557436 22.765464 -14.482550 -50.323287 15.195011 0.000000 0.000000 0.000000 -1.435285 -0.840918 13.560734 29.764158 2.596255 -4.443021 45.164500 -9.512398 1.380106 0.655582 34.455272 -5.645678 0.000000 0.000000 0.000000 
32.676815 35.517914 32.443550 -179.982178 8.768564 179.830575 0.861587 -5.667034 6.883770 -1.153887 -4.557801 -36.185833 16.955991 -3.240443 57.552028 -5.629344 0.724464 19.073657 0.000000 0.000000 0.000000 5.260860 -3.961020 5.189100 0.456974 6.534551 -21.134101 -5.504304 0.983999 20.759513 1.726510 9.018410 4.227359 0.000000 0.000000 0.000000 6.136287 -2.374896 -2.601742 6.582124 5.253347 -0.097847 0.530771 -4.111248 13.702281 -0.028374 0.140621 -0.009955 0.368084 -2.746732 16.818851 -0.830908 -6.858280 10.488366 0.000000 0.000000 0.000000 1.406881 -1.795535 13.247457 -12.397372 -14.070946 6.281784 -38.975488 17.855431 22.214500 -14.441354 -50.657017 15.258161 0.000000 0.000000 0.000000 -1.401250 -0.742742 13.703577 29.664191 2.926823 -4.098101 45.407740 -9.609486 0.646365 0.530925 33.438260 -5.673604 0.000000 0.000000 0.000000 
32.974632 35.610405 31.459284 179.994418 6.668663 179.876939 0.610550 -5.960326 7.038961 -0.186687 -5.162274 -38.972957 15.877821 -2.390449 52.380379 -4.828780 0.990407 19.601002 0.000000 0.000000 0.000000 5.240569 -4.213911 5.501231 0.884992 5.926831 -18.017537 -5.485015 0.381284 19.805095 1.072780 7.975135 1.943430 0.000000 0.000000 0.000000 5.995823 -2.506896 -2.187389 6.761487 5.632633 -0.316941 0.554766 -4.014311 13.801716 0.006458 0.011407 -0.013329 0.398020 -2.755518 16.873219 -1.045759 -6.825787 10.019370 0.000000 0.000000 0.000000 1.443555 -1.872567 13.424906 -12.148871 -13.891805 6.158318 -39.372363 19.007984 21.419885 -14.418688 -50.596880 15.437974 0.000000 0.000000 0.000000 -1.422633 -0.798760 13.742493 29.475306 3.103229 -3.810975 45.595782 -9.751192 0.436053 0.295437 32.734276 -5.760183 0.000000 0.000000 0.000000 
33.236340 35.613686 30.428007 179.982902 4.930252 179.963122 0.319403 -6.035836 6.956031 0.243996 -5.457275 -41.001410 14.877885 -1.466170 45.808470 -4.340143 1.285499 20.120132 0.000000 0.000000 0.000000 5.156547 -4.036946 5.726656 1.354447 4.629509 -14.958611 -5.394127 -0.449918 19.398813 0.702146 7.423780 -0.894527 0.000000 0.000000 0.000000 5.800951 -2.604842 -1.822804 6.915038 5.867826 -0.550375 0.557311 -3.998364 13.917525 -0.000975 -0.015091 -0.009280 0.445301 -2.731699 16.946048 -1.198951 -6.683095 9.531163 0.000000 0.000000 0.000000 1.468873 -1.832480 13.579780 -12.062073 -13.588886 6.033086 -40.310745 19.966152 20.585968 -14.212205 -50.358903 15.368518 0.000000 0.000000 0.000000 -1.379864 -0.646486 13.793095 29.221622 3.243190 -3.520204 45.838598 -9.781742 0.278691 0.084829 32.329860 -5.815061 0.000000 0.000000 0.000000 
33.484650 35.555466 29.350273 179.998311 3.558163 179.931908 -0.000606 -5.919715 6.701297 0.195518 -5.516303 -42.668127 13.977742 -0.536471 38.558337 -4.217127 1.503642 20.326127 0.000000 0.000000 0.000000 5.112045 -3.813907 5.932928 1.880700 3.008449 -11.938708 -5.079590 -0.996248 19.340811 0.447959 6.952802 -3.665121 0.000000 0.000000 0.000000 5.563779 -2.493940 -1.332835 7.009577 5.838266 -0.720291 0.605977 -3.950906 14.059811 -0.022489 0.003890 -0.011027 0.525149 -2.703631 16.967827 -1.367638 -6.519588 9.125857 0.000000 0.000000 0.000000 1.584176 -1.821008 13.659397 -12.115359 -13.343970 5.956450 -41.450338 20.652907 19.693887 -13.997688 -50.206682 15.214858 0.000000 0.000000 0.000000 -1.363196 -0.719364 13.860929 28.972146 3.368755 -3.334707 46.034966 -9.789052 0.078636 -0.060823 32.185614 -5.785281 0.000000 0.000000 0.000000 
